<svg width="21" height="24" viewBox="0 0 21 24" fill="none" xmlns="http://www.w3.org/2000/svg">
<path fill-rule="evenodd" clip-rule="evenodd" d="M11.6216 24C10.9819 24 9.26742 24 8.96931 24C8.6712 24 8.00462 24 8.00462 23.4664C8.00462 23.1597 8.00462 22.8797 8.00462 22.48C8.00462 22.13 7.98078 20.9303 7.98078 19.6803C3.92946 20.5803 3.0858 17.8806 3.0858 17.8806C2.43473 16.1309 1.47005 15.6812 1.47005 15.6812C0.144051 14.7564 1.56663 14.7564 1.56663 14.7564C3.03751 14.8564 3.80932 16.3061 3.80932 16.3061C5.11117 18.6055 7.20897 17.9558 8.05292 17.5558C8.17335 16.5809 8.55941 15.9061 8.96931 15.5312C5.73809 15.1812 2.33844 13.8815 2.33844 8.08239C2.33844 6.43268 2.91678 5.08298 3.83317 4.03328C3.68858 3.65843 3.18209 2.10842 3.97805 0.0338591C3.97805 0.0338591 5.20775 -0.366144 7.98048 1.58356C9.16758 1.25309 10.3918 1.08498 11.6216 1.08356C12.8513 1.08356 14.1049 1.25872 15.2624 1.58356C18.0354 -0.366144 19.2651 0.0338591 19.2651 0.0338591C20.0611 2.10842 19.5543 3.65843 19.4097 4.03328C20.3503 5.08298 20.9048 6.43268 20.9048 8.08239C20.9048 13.8815 17.5051 15.1561 14.2497 15.5312C14.7804 16.0061 15.2383 16.9058 15.2383 18.3306C15.2383 20.3552 15.2144 21.98 15.2144 22.4797C15.2144 22.8797 15.2144 22.4797 15.2144 23.4664C15.2144 24 14.5607 24 14.2497 24C13.9388 24 12.2613 24 11.6216 24Z" fill="white"/>
</svg>
